<svg width="50" height="50" viewBox="0 0 50 50" fill="none" xmlns="http://www.w3.org/2000/svg">
<g clip-path="url(#clip0_3_1142)">
<path d="M33.75 18.75H16.25C14.8693 18.75 13.75 19.8693 13.75 21.25V32.5C13.75 33.8807 14.8693 35 16.25 35H33.75C35.1307 35 36.25 33.8807 36.25 32.5V21.25C36.25 19.8693 35.1307 18.75 33.75 18.75Z" stroke="#EADEDA" stroke-width="2" stroke-linecap="round" stroke-linejoin="round"/>
<path d="M20 18.75V16.25C20 15.587 20.2634 14.9511 20.7322 14.4822C21.2011 14.0134 21.837 13.75 22.5 13.75H27.5C28.163 13.75 28.7989 14.0134 29.2678 14.4822C29.7366 14.9511 30 15.587 30 16.25V18.75" stroke="#EADEDA" stroke-width="2" stroke-linecap="round" stroke-linejoin="round"/>
<path d="M25 25V25.0125" stroke="#EADEDA" stroke-width="2" stroke-linecap="round" stroke-linejoin="round"/>
<path d="M13.75 26.25C17.2395 28.0084 21.0925 28.9243 25 28.9243C28.9075 28.9243 32.7605 28.0084 36.25 26.25" stroke="#EADEDA" stroke-width="2" stroke-linecap="round" stroke-linejoin="round"/>
</g>
<circle cx="25" cy="25" r="23.75" stroke="#EADEDA" stroke-width="2.5"/>
<defs>
<clipPath id="clip0_3_1142">
<rect width="30" height="30" fill="white" transform="translate(10 10)"/>
</clipPath>
</defs>
</svg>
