<svg id="visual" viewBox="0 0 900 600" width="900" height="600" xmlns="http://www.w3.org/2000/svg" xmlns:xlink="http://www.w3.org/1999/xlink" version="1.1"><rect x="0" y="0" width="900" height="600" fill="#FFF"></rect><path d="M0 366L10 375.3C20 384.7 40 403.3 60 410.8C80 418.3 100 414.7 120 411C140 407.3 160 403.7 180 404.8C200 406 220 412 240 413.5C260 415 280 412 300 402.8C320 393.7 340 378.3 360 380.7C380 383 400 403 420 403.5C440 404 460 385 480 381.5C500 378 520 390 540 390.3C560 390.7 580 379.3 600 370C620 360.7 640 353.3 660 364C680 374.7 700 403.3 720 413.8C740 424.3 760 416.7 780 417.2C800 417.7 820 426.3 840 418.3C860 410.3 880 385.7 890 373.3L900 361L900 601L890 601C880 601 860 601 840 601C820 601 800 601 780 601C760 601 740 601 720 601C700 601 680 601 660 601C640 601 620 601 600 601C580 601 560 601 540 601C520 601 500 601 480 601C460 601 440 601 420 601C400 601 380 601 360 601C340 601 320 601 300 601C280 601 260 601 240 601C220 601 200 601 180 601C160 601 140 601 120 601C100 601 80 601 60 601C40 601 20 601 10 601L0 601Z" fill="#13315c"></path><path d="M0 388L10 396.5C20 405 40 422 60 432.2C80 442.3 100 445.7 120 441.3C140 437 160 425 180 425.3C200 425.7 220 438.3 240 439.2C260 440 280 429 300 425.7C320 422.3 340 426.7 360 425.2C380 423.7 400 416.3 420 413.2C440 410 460 411 480 412.3C500 413.7 520 415.3 540 419.2C560 423 580 429 600 423.8C620 418.7 640 402.3 660 394.3C680 386.3 700 386.7 720 391.3C740 396 760 405 780 405.5C800 406 820 398 840 392.7C860 387.3 880 384.7 890 383.3L900 382L900 601L890 601C880 601 860 601 840 601C820 601 800 601 780 601C760 601 740 601 720 601C700 601 680 601 660 601C640 601 620 601 600 601C580 601 560 601 540 601C520 601 500 601 480 601C460 601 440 601 420 601C400 601 380 601 360 601C340 601 320 601 300 601C280 601 260 601 240 601C220 601 200 601 180 601C160 601 140 601 120 601C100 601 80 601 60 601C40 601 20 601 10 601L0 601Z" fill="#09436d"></path><path d="M0 422L10 428.5C20 435 40 448 60 450.7C80 453.3 100 445.7 120 448.7C140 451.7 160 465.3 180 471.2C200 477 220 475 240 464.8C260 454.7 280 436.3 300 434.2C320 432 340 446 360 456C380 466 400 472 420 469.2C440 466.3 460 454.7 480 449.5C500 444.3 520 445.7 540 450.7C560 455.7 580 464.3 600 460C620 455.7 640 438.3 660 430.3C680 422.3 700 423.7 720 428.8C740 434 760 443 780 444C800 445 820 438 840 434.7C860 431.3 880 431.7 890 431.8L900 432L900 601L890 601C880 601 860 601 840 601C820 601 800 601 780 601C760 601 740 601 720 601C700 601 680 601 660 601C640 601 620 601 600 601C580 601 560 601 540 601C520 601 500 601 480 601C460 601 440 601 420 601C400 601 380 601 360 601C340 601 320 601 300 601C280 601 260 601 240 601C220 601 200 601 180 601C160 601 140 601 120 601C100 601 80 601 60 601C40 601 20 601 10 601L0 601Z" fill="#00567d"></path><path d="M0 498L10 495.8C20 493.7 40 489.3 60 487C80 484.7 100 484.3 120 485C140 485.7 160 487.3 180 483C200 478.7 220 468.3 240 466.3C260 464.3 280 470.7 300 470.8C320 471 340 465 360 460.7C380 456.3 400 453.7 420 457.8C440 462 460 473 480 474.3C500 475.7 520 467.3 540 467.8C560 468.3 580 477.7 600 477.5C620 477.3 640 467.7 660 465.3C680 463 700 468 720 467.3C740 466.7 760 460.3 780 457.7C800 455 820 456 840 458C860 460 880 463 890 464.5L900 466L900 601L890 601C880 601 860 601 840 601C820 601 800 601 780 601C760 601 740 601 720 601C700 601 680 601 660 601C640 601 620 601 600 601C580 601 560 601 540 601C520 601 500 601 480 601C460 601 440 601 420 601C400 601 380 601 360 601C340 601 320 601 300 601C280 601 260 601 240 601C220 601 200 601 180 601C160 601 140 601 120 601C100 601 80 601 60 601C40 601 20 601 10 601L0 601Z" fill="#00698b"></path><path d="M0 500L10 497.5C20 495 40 490 60 486.7C80 483.3 100 481.7 120 489C140 496.3 160 512.7 180 519.5C200 526.3 220 523.7 240 520.7C260 517.7 280 514.3 300 515.3C320 516.3 340 521.7 360 520.2C380 518.7 400 510.3 420 507.7C440 505 460 508 480 504.3C500 500.7 520 490.3 540 492.3C560 494.3 580 508.7 600 517.3C620 526 640 529 660 523.3C680 517.7 700 503.3 720 494.8C740 486.3 760 483.7 780 489.8C800 496 820 511 840 512.5C860 514 880 502 890 496L900 490L900 601L890 601C880 601 860 601 840 601C820 601 800 601 780 601C760 601 740 601 720 601C700 601 680 601 660 601C640 601 620 601 600 601C580 601 560 601 540 601C520 601 500 601 480 601C460 601 440 601 420 601C400 601 380 601 360 601C340 601 320 601 300 601C280 601 260 601 240 601C220 601 200 601 180 601C160 601 140 601 120 601C100 601 80 601 60 601C40 601 20 601 10 601L0 601Z" fill="#007c96"></path><path d="M0 541L10 539.7C20 538.3 40 535.7 60 537.5C80 539.3 100 545.7 120 545.5C140 545.3 160 538.7 180 533.5C200 528.3 220 524.7 240 528.5C260 532.3 280 543.7 300 547.8C320 552 340 549 360 543.7C380 538.3 400 530.7 420 527.2C440 523.7 460 524.3 480 522.2C500 520 520 515 540 513.8C560 512.7 580 515.3 600 522.3C620 529.3 640 540.7 660 546.8C680 553 700 554 720 554C740 554 760 553 780 552.3C800 551.7 820 551.3 840 550C860 548.7 880 546.3 890 545.2L900 544L900 601L890 601C880 601 860 601 840 601C820 601 800 601 780 601C760 601 740 601 720 601C700 601 680 601 660 601C640 601 620 601 600 601C580 601 560 601 540 601C520 601 500 601 480 601C460 601 440 601 420 601C400 601 380 601 360 601C340 601 320 601 300 601C280 601 260 601 240 601C220 601 200 601 180 601C160 601 140 601 120 601C100 601 80 601 60 601C40 601 20 601 10 601L0 601Z" fill="#058f9e"></path><path d="M0 554L10 552.3C20 550.7 40 547.3 60 548.8C80 550.3 100 556.7 120 561.7C140 566.7 160 570.3 180 573.2C200 576 220 578 240 577.2C260 576.3 280 572.7 300 569.7C320 566.7 340 564.3 360 565.7C380 567 400 572 420 572C440 572 460 567 480 566.5C500 566 520 570 540 568.3C560 566.7 580 559.3 600 558.8C620 558.3 640 564.7 660 563.7C680 562.7 700 554.3 720 554.3C740 554.3 760 562.7 780 564.8C800 567 820 563 840 559.8C860 556.7 880 554.3 890 553.2L900 552L900 601L890 601C880 601 860 601 840 601C820 601 800 601 780 601C760 601 740 601 720 601C700 601 680 601 660 601C640 601 620 601 600 601C580 601 560 601 540 601C520 601 500 601 480 601C460 601 440 601 420 601C400 601 380 601 360 601C340 601 320 601 300 601C280 601 260 601 240 601C220 601 200 601 180 601C160 601 140 601 120 601C100 601 80 601 60 601C40 601 20 601 10 601L0 601Z" fill="#2da2a2"></path></svg>