<svg id="visual" viewBox="0 0 900 600" width="900" height="600" xmlns="http://www.w3.org/2000/svg" xmlns:xlink="http://www.w3.org/1999/xlink" version="1.1"><rect x="0" y="0" width="900" height="600" fill="#fff"></rect><path d="M477 0L465 0L465 67L319 67L319 133L287 133L287 200L398 200L398 267L159 267L159 333L296 333L296 400L396 400L396 467L369 467L369 533L404 533L404 600L0 600L0 533L0 533L0 467L0 467L0 400L0 400L0 333L0 333L0 267L0 267L0 200L0 200L0 133L0 133L0 67L0 67L0 0L0 0Z" fill="#13315C" stroke-linecap="square" stroke-linejoin="miter"></path></svg>