<svg id="visual" viewBox="0 0 900 600" width="900" height="600" xmlns="http://www.w3.org/2000/svg" xmlns:xlink="http://www.w3.org/1999/xlink" version="1.1"><rect x="0" y="0" width="900" height="600" fill="#fff"></rect><path d="M0 412L21.5 420.3C43 428.7 86 445.3 128.8 452.2C171.7 459 214.3 456 257.2 442.8C300 429.7 343 406.3 385.8 406.2C428.7 406 471.3 429 514.2 425C557 421 600 390 642.8 398.7C685.7 407.3 728.3 455.7 771.2 469.2C814 482.7 857 461.3 878.5 450.7L900 440L900 601L878.5 601C857 601 814 601 771.2 601C728.3 601 685.7 601 642.8 601C600 601 557 601 514.2 601C471.3 601 428.7 601 385.8 601C343 601 300 601 257.2 601C214.3 601 171.7 601 128.8 601C86 601 43 601 21.5 601L0 601Z" fill="#13315c" stroke-linecap="round" stroke-linejoin="miter"></path></svg>