<svg id="visual" viewBox="0 0 900 600" width="900" height="600" xmlns="http://www.w3.org/2000/svg" xmlns:xlink="http://www.w3.org/1999/xlink" version="1.1"><rect x="0" y="0" width="900" height="600" fill="#13315C"></rect><path d="M0 191L100 191L100 201L200 201L200 327L300 327L300 354L400 354L400 259L500 259L500 464L600 464L600 347L700 347L700 261L800 261L800 284L900 284L900 254L900 601L900 601L800 601L800 601L700 601L700 601L600 601L600 601L500 601L500 601L400 601L400 601L300 601L300 601L200 601L200 601L100 601L100 601L0 601Z" fill="#fff" stroke-linecap="square" stroke-linejoin="miter"></path></svg>