<svg id="visual" viewBox="0 0 900 600" width="900" height="600" xmlns="http://www.w3.org/2000/svg" xmlns:xlink="http://www.w3.org/1999/xlink" version="1.1"><rect x="0" y="0" width="900" height="600" fill="#fff"></rect><path d="M0 186L21.5 177.7C43 169.3 86 152.7 128.8 145.8C171.7 139 214.3 142 257.2 155.2C300 168.3 343 191.7 385.8 191.8C428.7 192 471.3 169 514.2 173C557 177 600 208 642.8 199.3C685.7 190.7 728.3 142.3 771.2 128.8C814 115.3 857 136.7 878.5 147.3L900 158L900 0L878.5 0C857 0 814 0 771.2 0C728.3 0 685.7 0 642.8 0C600 0 557 0 514.2 0C471.3 0 428.7 0 385.8 0C343 0 300 0 257.2 0C214.3 0 171.7 0 128.8 0C86 0 43 0 21.5 0L0 0Z" fill="#13315c" stroke-linecap="round" stroke-linejoin="miter"></path></svg>