<svg id="visual" viewBox="0 0 900 600" width="900" height="600" xmlns="http://www.w3.org/2000/svg" xmlns:xlink="http://www.w3.org/1999/xlink" version="1.1"><rect x="0" y="0" width="900" height="600" fill="#fff"></rect><path d="M425 600L437 600L437 533L583 533L583 467L615 467L615 400L504 400L504 333L743 333L743 267L606 267L606 200L506 200L506 133L533 133L533 67L498 67L498 0L900 0L900 67L900 67L900 133L900 133L900 200L900 200L900 267L900 267L900 333L900 333L900 400L900 400L900 467L900 467L900 533L900 533L900 600L900 600Z" fill="#13315C" stroke-linecap="square" stroke-linejoin="miter"></path></svg>